<mxfile host="app.diagrams.net" modified="2024-04-05T10:51:16.714Z" agent="Mozilla/5.0 (Windows NT 10.0; Win64; x64) AppleWebKit/537.36 (KHTML, like Gecko) Chrome/123.0.0.0 Safari/537.36 Edg/123.0.0.0" etag="XwonNQstWu3hQz3aN7K6" version="24.2.2" type="device">
  <diagram name="Page-1" id="oKDwJuZ7onsvG4DtFeW-">
    <mxGraphModel dx="1320" dy="862" grid="1" gridSize="10" guides="1" tooltips="1" connect="1" arrows="1" fold="1" page="1" pageScale="1" pageWidth="850" pageHeight="1100" math="0" shadow="0">
      <root>
        <mxCell id="0" />
        <mxCell id="1" parent="0" />
        <mxCell id="vlyGSTa35PBj2PmTt2uk-36" style="edgeStyle=orthogonalEdgeStyle;rounded=0;orthogonalLoop=1;jettySize=auto;html=1;exitX=0.5;exitY=0.5;exitDx=0;exitDy=0;exitPerimeter=0;entryX=0;entryY=0.5;entryDx=0;entryDy=0;" edge="1" parent="1" source="vlyGSTa35PBj2PmTt2uk-1" target="vlyGSTa35PBj2PmTt2uk-2">
          <mxGeometry relative="1" as="geometry" />
        </mxCell>
        <mxCell id="vlyGSTa35PBj2PmTt2uk-1" value="Actor" style="shape=umlActor;verticalLabelPosition=bottom;verticalAlign=top;html=1;outlineConnect=0;" vertex="1" parent="1">
          <mxGeometry x="20" y="409" width="30" height="60" as="geometry" />
        </mxCell>
        <mxCell id="vlyGSTa35PBj2PmTt2uk-25" style="edgeStyle=orthogonalEdgeStyle;rounded=0;orthogonalLoop=1;jettySize=auto;html=1;exitX=1;exitY=0.5;exitDx=0;exitDy=0;entryX=0;entryY=0.5;entryDx=0;entryDy=0;" edge="1" parent="1" source="vlyGSTa35PBj2PmTt2uk-2" target="vlyGSTa35PBj2PmTt2uk-3">
          <mxGeometry relative="1" as="geometry" />
        </mxCell>
        <mxCell id="vlyGSTa35PBj2PmTt2uk-2" value="Insert card" style="ellipse;whiteSpace=wrap;html=1;" vertex="1" parent="1">
          <mxGeometry x="80" y="399" width="120" height="80" as="geometry" />
        </mxCell>
        <mxCell id="vlyGSTa35PBj2PmTt2uk-24" style="edgeStyle=orthogonalEdgeStyle;rounded=0;orthogonalLoop=1;jettySize=auto;html=1;exitX=1;exitY=0.5;exitDx=0;exitDy=0;" edge="1" parent="1" source="vlyGSTa35PBj2PmTt2uk-3">
          <mxGeometry relative="1" as="geometry">
            <mxPoint x="420" y="439" as="targetPoint" />
          </mxGeometry>
        </mxCell>
        <mxCell id="vlyGSTa35PBj2PmTt2uk-3" value="Select Language" style="ellipse;whiteSpace=wrap;html=1;" vertex="1" parent="1">
          <mxGeometry x="236" y="399" width="120" height="80" as="geometry" />
        </mxCell>
        <mxCell id="vlyGSTa35PBj2PmTt2uk-29" style="edgeStyle=orthogonalEdgeStyle;rounded=0;orthogonalLoop=1;jettySize=auto;html=1;exitX=1;exitY=0.5;exitDx=0;exitDy=0;entryX=0;entryY=0.5;entryDx=0;entryDy=0;" edge="1" parent="1" source="vlyGSTa35PBj2PmTt2uk-5">
          <mxGeometry relative="1" as="geometry">
            <mxPoint x="610" y="440" as="targetPoint" />
          </mxGeometry>
        </mxCell>
        <mxCell id="vlyGSTa35PBj2PmTt2uk-5" value="Withdraw cash" style="ellipse;whiteSpace=wrap;html=1;" vertex="1" parent="1">
          <mxGeometry x="421" y="400" width="120" height="80" as="geometry" />
        </mxCell>
        <mxCell id="vlyGSTa35PBj2PmTt2uk-16" style="edgeStyle=orthogonalEdgeStyle;rounded=0;orthogonalLoop=1;jettySize=auto;html=1;exitX=1;exitY=0.5;exitDx=0;exitDy=0;" edge="1" parent="1" source="vlyGSTa35PBj2PmTt2uk-8" target="vlyGSTa35PBj2PmTt2uk-11">
          <mxGeometry relative="1" as="geometry" />
        </mxCell>
        <mxCell id="vlyGSTa35PBj2PmTt2uk-8" value="Current account" style="ellipse;whiteSpace=wrap;html=1;" vertex="1" parent="1">
          <mxGeometry x="626" y="260" width="120" height="80" as="geometry" />
        </mxCell>
        <mxCell id="vlyGSTa35PBj2PmTt2uk-17" style="edgeStyle=orthogonalEdgeStyle;rounded=0;orthogonalLoop=1;jettySize=auto;html=1;exitX=1;exitY=0.5;exitDx=0;exitDy=0;entryX=0;entryY=0.5;entryDx=0;entryDy=0;" edge="1" parent="1" source="vlyGSTa35PBj2PmTt2uk-9" target="vlyGSTa35PBj2PmTt2uk-11">
          <mxGeometry relative="1" as="geometry" />
        </mxCell>
        <mxCell id="vlyGSTa35PBj2PmTt2uk-9" value="Saving account" style="ellipse;whiteSpace=wrap;html=1;" vertex="1" parent="1">
          <mxGeometry x="626" y="390" width="120" height="80" as="geometry" />
        </mxCell>
        <mxCell id="vlyGSTa35PBj2PmTt2uk-18" style="edgeStyle=orthogonalEdgeStyle;rounded=0;orthogonalLoop=1;jettySize=auto;html=1;exitX=1;exitY=0.5;exitDx=0;exitDy=0;entryX=0.5;entryY=1;entryDx=0;entryDy=0;" edge="1" parent="1" source="vlyGSTa35PBj2PmTt2uk-10" target="vlyGSTa35PBj2PmTt2uk-11">
          <mxGeometry relative="1" as="geometry" />
        </mxCell>
        <mxCell id="vlyGSTa35PBj2PmTt2uk-10" value="Credit card" style="ellipse;whiteSpace=wrap;html=1;" vertex="1" parent="1">
          <mxGeometry x="626" y="540" width="120" height="80" as="geometry" />
        </mxCell>
        <mxCell id="vlyGSTa35PBj2PmTt2uk-19" style="edgeStyle=orthogonalEdgeStyle;rounded=0;orthogonalLoop=1;jettySize=auto;html=1;exitX=1;exitY=0.5;exitDx=0;exitDy=0;entryX=0;entryY=0.5;entryDx=0;entryDy=0;" edge="1" parent="1" source="vlyGSTa35PBj2PmTt2uk-11">
          <mxGeometry relative="1" as="geometry">
            <mxPoint x="906.0000000000095" y="430" as="targetPoint" />
          </mxGeometry>
        </mxCell>
        <mxCell id="vlyGSTa35PBj2PmTt2uk-11" value="Enter amount &amp;amp; enter pin" style="ellipse;whiteSpace=wrap;html=1;" vertex="1" parent="1">
          <mxGeometry x="766" y="390" width="120" height="80" as="geometry" />
        </mxCell>
        <mxCell id="vlyGSTa35PBj2PmTt2uk-13" value="Collect cash" style="ellipse;whiteSpace=wrap;html=1;" vertex="1" parent="1">
          <mxGeometry x="906" y="390" width="120" height="80" as="geometry" />
        </mxCell>
        <mxCell id="vlyGSTa35PBj2PmTt2uk-37" value="" style="rounded=0;whiteSpace=wrap;html=1;fillColor=none;" vertex="1" parent="1">
          <mxGeometry x="610" y="235" width="430" height="405" as="geometry" />
        </mxCell>
      </root>
    </mxGraphModel>
  </diagram>
</mxfile>
